<svg xmlns="http://www.w3.org/2000/svg" data-name="Слой 1" viewBox="0 0 615 520"><path fill="none" d="M154.3 330.2a88.8 88.8 0 01-33.7-47.9c-13.9-4.3-15.2-21.3-5-32.2 0-30 10.7-60.3 31-82.6l-.8-11.7L35.3 266.3a111 111 0 00-26 115.3l161-43a78.3 78.3 0 01-16-8.4zM223.8 423.8l-32 10.9 50 21.5 33.3-12.2-51.3-20.2zM223.8 460.9c-7.7-1.8-79.7-40-86.6-34-1.3 1.4-52.8 14.3-50.3 18.3a3.4 3.4 0 001.8 3.4l69.7 37.1a16.3 16.3 0 0013.3 1l52-19.4a3.5 3.5 0 00.1-6.4zM183.5 143.1l-.2.1.7 2.9a102 102 0 0021.8-6.8c1-4.7 7.4-7.7 12.1-6a113.2 113.2 0 009.9-6.5L230 112a111 111 0 00-35.1 7.6c-.9 12.3-5.5 20.3-11.4 23.5zM300 41c.2 0 .2-.2.3-.3a2 2 0 00-.5 0 .7.7 0 01.3.4zM269.2 352.8l-.3.2c1 .4 9 1.6 5 3.4l-7.4-2a163 163 0 01-17.7 8.8c6.8 1.1 111.7 36.5 116.4 30.6a42 42 0 0125.4 8.5c3.4 2 5.1 2 4.6 3.5.1.2-.2.5-.8 1-.3 1.2 78.9 20.8 70.3 23.1l-52-15.5-32.5 12.5 49 16.1a1 1 0 01.7 1.3c.2 2.3-23.2-7.1-23.8-6.8l-32.5 13c.4.7 22.4 6.8 20.8 8.6a1 1 0 01-1.3.6l-50.8-18.2-34.5 13.2 48 18.9a1 1 0 01.6 1.3c.5 2.5-22.8-8.4-23.3-8.1l-28.8 11.6a109.8 109.8 0 0042.7 24.3l146.5-64 19.5-19.5c-12-3.4-224.6-61.1-243.8-66.4zm151.3 52.8c-1 3.9-9.5 5.2-12.8 2.7-1.5-1.2-1.3-3.4.8-3.4 1.3-4.3 11.9-6 12 .7zM457.2 475l4-4-80.6 36.3a110.3 110.3 0 0076.6-32.3zM579.3 353c45.5-43.6 41.8-122-6-162.5l-28.4 196.8z"/><path fill="none" d="M188.7 435.5L74 386.1a1 1 0 01.8-1.8l15.6 6.7 28.7-8.3-13.7-5.4c-6.2-7 40.7 14.8 39.8 13.5l30.3-9-20.4-7.3c-1 .4-4 1.1-3-1a233.1 233.1 0 01-43.1-16.5l-99 26.5a110.7 110.7 0 0026.4 40.2c26.3 24.6 65.1 74.6 102.7 80.4 2.4-17.7 29.4-14.7 27.7 3.2 33.3.6 65.6-17.2 88.2-43.2zm39.2 28.7a5.4 5.4 0 01-3.6 5c-3.3 1-56.5 22-58.3 20.4-2.5 3.3-74.2-38-78.2-39.3a5.4 5.4 0 01-3-5.3c-2.3-6.4 49-17.8 51.8-20.1 8.2-6.4 79.3 32.1 88 34.2a5.4 5.4 0 013.3 5.1zM278 445l-5.3 2 28 28 2 1.9 27.7-11.2z"/><path fill="none" d="M199 412l31.9-10.4-52.1-18.7-30.5 9.1 50.7 20zM293 400.4l-30.6 10.3 52.2 18.7 31.5-11.6-53.2-17.4zM317.6 430.5l53.2 19 32.3-13-54-17.7zM348.7 413.6c-4.7-2.7-10.5-.7-14.7-2.4-3.9-1.5-1.5-5.4 1.1-7.7l-12.7 4.5 54.7 18 32.5-12.6-17.7-5.3c-6 3.8-32.6 7.3-43.2 5.5zM240 383l-29.3 9.2 48.7 17.4 30.4-10.2L240 383zM236.7 382l-24.7-8.1a163.4 163.4 0 01-51.8.2l47.5 17c.3-.3 28.7-9 29-9.1zM245.9 364.4a164 164 0 01-29.7 8.8l50.8 16.6 30.5-10-48.6-14.5-3-.9zM278 443a1 1 0 011 .4l26 10.2 34.4-13.2-54.1-19.4-33.3 11.8zM142.7 413.5l46.3 20 32-10.8-47.8-18.7-30.5 9.5zM223.8 421.7a1 1 0 011.2.4l24.2 9.5 33.1-11.6-48.3-17.3-32 10.4zM122.3 384l-28.9 8.3 46.5 20 30.4-9.5-48-18.9zM319.3 407c8.5-2.5 22.2-8.7 30.8-11.4L301 381l-30.7 10zM244.5 457.4l12 5.2 15.4-15.3-27.4 10.1z"/><path fill="#233267" d="M272.7 447l-.8.3-15.3 15.3 3 1.3 12.9-13 26.1 26.2 1 1 3-1.2-1.8-1.9zM9.4 381.6a111 111 0 0126-115.3l110.4-110.5a541 541 0 00-.3-3.9L32.2 265.2A114 114 0 006.5 382.5c.1-.2 2.8-.8 2.9-.9zM493.5 438.8l7.5-3.3 15.3-15.4-3.3-1-19.5 19.7zM524 412.4l.4-.4-.4.4zM304.3 478.4l-3 1.2a112.8 112.8 0 0041.5 24.9l4.2-1.8a109.8 109.8 0 01-42.7-24.3zM139.1 504c-37.3-5.6-76.4-55.8-102.6-80.3A110.8 110.8 0 0110 383.5l-3 .8a113.3 113.3 0 0026.2 40.5c27.2 25.5 66.9 76.6 105.8 82.3a12.7 12.7 0 010-3zM244.2 475a110.3 110.3 0 01-77.3 32.3 14 14 0 01-.6 3 113.3 113.3 0 0080-33.2l-.8-.8.8.8 11.7-11.7-3-1.3zM230 112l.5-3a114 114 0 00-35.5 7.3l-.1 3.3A111 111 0 01230 112zM526.8 409.6l15-15-15 15zM614.7 274.7c.3-34.2-15.7-65.4-40.9-87.9l-.5 3.7c47.8 40.5 51.5 118.9 6 162.4l-34.4 34.4-.8 5c32.5-30.9 73.7-68.5 70.6-117.6zM457.2 475a110.3 110.3 0 01-76.6 32.3l-6.5 3a113.3 113.3 0 0085.2-33.2l-.9-.9 1 1 9.5-9.7-7.7 3.5z"/><path fill="#233267" d="M9.4 381.6l-3 .8.8 2 2.9-.9-.7-1.9zM490 442.2l7.6-3.3 3.4-3.4-7.5 3.3-3.5 3.4zM349.6 503.4l-2.6-.7-4.2 1.8 2.6.8zM302.7 476.9l-3 1.2 1.5 1.5 3.1-1.2-1.6-1.5zM256.6 462.6l-1.5 1.5 3 1.3 1.4-1.5-3-1.3zM350 503.5l-4.3 1.9a114.2 114.2 0 0028.4 4.8l6.5-2.9a111.3 111.3 0 01-30.6-3.8zM489.6 442.6L461.2 471l7.7-3.5 28.2-28.2-7.5 3.3zM543.7 388.5l-.7 5-1.2 1.2 2.3-2.4.8-5-1.2 1.2z"/><path fill="#233267" d="M541.8 394.5a.4.4 0 000 .2l1.2-1.3.7-5-1.2 1.3zM524.4 412l-2.3 2.3-3.4-.8-4 4c1.5 0 3 1.7 1 2.3l-2.6-.7 3.2 1 7.7-7.7.4-.4z"/><path fill="#233267" d="M524 409.5l.2-1.5-5.5 5.5 3.4.8 2.3-2.3.2-1.4a1 1 0 01-.7-1zM515.4 419.7c2.3 0 1.2-2.2-.7-2.2l-1.6 1.6z"/><path fill="#fff" d="M538.3 55.8a6.7 6.7 0 00-5.5-2l-123.4 8.9c-5.4.3-8.2 7.3-4.5 11.1l16.9 21.4.7-.6-16.8-21.4a5.7 5.7 0 013.8-9.5l123.4-9a5.7 5.7 0 016.2 6.5l-10.9 80 1 1c-.7-2.7 14.3-86.7 9.1-86.4zM519.9 202.6a5.7 5.7 0 01-10 3l-19.6-24.9-.7.7c3 2.5 19.6 28.8 24.6 27.2a6.8 6.8 0 006.7-5.8l7.7-57-.9-.8z"/><path fill="#fff" d="M528.2 141.2l-.5 3.8 1 .9.4-3.8-.9-.9z"/><path fill="#fff" d="M406.5 72.6c-2.7-2.7-.7-7.7 3-8l124-9A4.8 4.8 0 01538 61l-10.8 79.4 1 .8 10.8-80a5.7 5.7 0 00-6.2-6.5l-123.4 9a5.7 5.7 0 00-3.8 9.5l16.8 21.4.8-.6zM526.8 144c-1.6 2.8-5.5 63.5-11.2 62.4a4.6 4.6 0 01-4.8-1.3L491 180l-.8.6 19.7 25a5.7 5.7 0 009.9-3l7.8-57.7-.9-1z"/><path fill="#fff" d="M526.8 144l1 1 .4-3.8-.9-.8z"/><path fill="#293b7a" d="M250.2 364.7c-.4 1.8-5.7-1-7-1.1l-29.4 8.8 3.4 1.1a1 1 0 01-.6 2c-2.4-.9-27.2-9-30.3-10l-27.8 8-.8.2c-1.2.1-6.6 3-5.4-.3l-14.4-5.2a1 1 0 01-.6-1.2c-.3-2.4 17.4 5.6 18 5.3l27.6-8-14.4-4.7a1 1 0 01.6-1.9l41.4 13.6 29.2-8.7-39.5-11.9a1 1 0 11.6-1.9l48 14.4c.7.1 1.7.6 1.4 1.5zm24-10.2c-6.5-.8-43.8-14.5-50.5-12l50 13.9a1 1 0 00.5-2zM260 85.3c-1.4-8.3 4.8-11 5.9-18.1l-12.1 1.3-6 39.4a115.3 115.3 0 0013.2-19.5 10.6 10.6 0 01-1-3.1zm278.6 70.6l-32.8 230.8-208.3-50.9 65.9-53c2-14.2 5.5-34 5.3-47.7.7-10.3 1.1-17.1-2.9-19.2-2.7-1.4-5.5-5.7-8-11.6l-15.2 12.2c2.3-5.2 4-25.4-5.5-18.6.4-7-7.7-9.5-13.8-7.9.1-9.9-3-19.5-9.6-27-1.5-1.4-.9-4-1-5.8 0-14.5.2-29.3.4-43.8 0-4.6-.5-10.4 3.7-13.3l20.7-16.3c.7-.2 4.6-4.5 5.3-3.2l9 21.3c-14.7 9.1-8.5 26.8-3.8 40.2-3.7 1.3 1.3 18.4 3.5 25.2 1.4-7.4 6.7-18.7 14.3-18.3 14.5-5.6 23 8.2 33.1 2.6 3.8-4.5 4.7-3.7 11-1.2l-15.8-33c-8.1-18.1-10.9-24-34.3-19-3.3-6.9-6.5-16.7-10.6-23.2-5.2-6.1-12.4-2.4-16.9 2.4l-20 17c-10 8.2-4 27.7-5 39.6l.7 25.3c1.7 12 11.4 10.8 11 32-8.4 3.5-13.6 10.9-12 18.1a64 64 0 00-18.9 19.7c3.6-20.6-5.7-35.4-19.2-33.3a1 1 0 00.8 1.1 19.8 19.8 0 0110 4c10.7 9.3 9.6 31.3-1.6 41.8l-9.6-16.8c.6-3.5 1.3-12.8-2.8-18-1.5-2-6.7-5.4-8.6-2.7a1 1 0 001 1c8.4 0 9.3 11 8.7 16.9a382.6 382.6 0 00-29.8-43.9l.5-3.4c3.4-2.2 4.6-6.7 4.1-11a177.2 177.2 0 0039.7-61c6.7.2 6.8-8.5 8.2-12.6 4.2-8.3 9-19.1 13-28l253-26.6-16.4 115.4zm-277.4 40.2c0-1.8-7.7-.2-7 1.4 1.2 1.8 3.5-.4 6.2-.3a1 1 0 00.8-1.1zm199.2 46.3a1 1 0 00-1.4-.1c-.2 1.3-51.3 39-49.4 41a1 1 0 001.4.1c.2-1.3 51.3-39 49.4-41zm20.2-16.3a1 1 0 00-1.4-.1c-.4.8-10 6.7-8.4 8a1 1 0 001.4.2c.4-.8 10-6.8 8.4-8zm48-80.2l.4-3.8 11-80.8a6.8 6.8 0 00-7.3-7.6c-2.7 2-131.9 5.1-129 13.2-3.7 5.7 15.9 23.9 18 28.3l-26 21 2.2 4.5 1.3 2.7 38.6 80.5c-4.1-2.2-11.2-19-13.2-23l-12.8-26.6c-2.2.4-5.3-1.4-6.5 0-7.6 8-15 7.4-19.8 5.9-7.3-2.3-10-10.3-18.4-9.6-16.2 3.2-15.4 25.8-11.9 38.5 8.7-8.3 14.8 8.7 20.3-2.3a1 1 0 011.4-.5c1.6 2.4-3.1 6.1-5.2 6.4-6.1.2-9.8-8-16-1.4 2 7.4 5.9 19.8 11 22.8 2.5 1.4 3.6 3.5 4.1 6.7 1.3 19-2.6 42.6-5.4 62.7.5 18.7.2 47.1 4.7 55 5-8.3 6.3-50.8 7.6-67.2 1-18.4-3.3-28.6-4.1-45 4.4 15.5 6.2 25.7 6.2 43.3l15.4-12.4c-.2-2.6-.6-4.4-2.3-3.5.4-.1 12.7-6.5 13-6a7 7 0 00-.7 1.5l2-1.6c14.2-1.8 28.4-12.4 32-25.8l50.3-40.4c3 2.5 19.6 28.8 24.6 27.2a6.8 6.8 0 006.7-5.8zm55-126.4c-.4-4.1-5.9-8-9.4-10.2 5.3 3.8 8.8 11 7.8 17.7l-16.4 109.6L525.2 407l-1 1c-.1.8-.7 2.4.4 2.6l-.2 1.4 2.4-2.4 15-15 .7-4.9-15 15C541.3 304 573.4 118 583.8 19.4zM319.5 198.8l-.3-5.2c-6.4 3.2-12.2 9-9.7 14.9 11 14.2 43-19.2 14-16.5l.5 5.3c5.6 0 3.8 6-.2 7.7-6.5 3.7-10.2-2.7-4.3-6.2zm105 11.5c9.3 19.7-27.7 35.9-35.9 15.7-7.3-18.7 27.2-33.8 36-15.7zm-10.4 5c-3.7-7.5-17.6-1.4-14.7 6.4 3 8.3 18.8 1.4 14.7-6.5zM227 138.5a44.3 44.3 0 0112 16.2 222.8 222.8 0 0037-65.2 28.8 28.8 0 00-10.1-6.4 116 116 0 01-45.6 51 29.3 29.3 0 016.7 4.4zm-16.7-.2c12.3 0 21.6 18.3 24.5 27.7 1.2 4 .8 5.2-2.4 7.6 4 3.8 7.8-3 7.4-6.8.7-12.3-18.8-42.1-31.7-28.3a11.7 11.7 0 012.2-.2zm-17.7-43.1c13.8.6 27.6-29.4-1.7-6.6q1 3.4 1.7 6.6zm-42 10.2c.4-.9-.4-1.5-1.2-1.8a17.5 17.5 0 017.2-7.5c16.2 5 19.4 4.2 32.6-6.2a109.2 109.2 0 012.5 11c-2.7 1-8 1.2-8.3 4 1.6 1.5 8-3 10.6-2.3 9.2.4-3 7.6-5.6 8.6-2 3.6 3.3.8 4.5-.2 1.5 29-13.5 41.5-35.8 20.9 1.3 8.5 17.9 18.2 27.8 17.8l-1.7-6.6 1.3 4.8c7.4 20.7-17.2 28.4-35.8 20-.3-16.2-4.4-34.9-4.8-49.2 1.4.6 4.9-.1 2.5-1.8a9.1 9.1 0 01-5.6-1.8c-6.7-5.3-1.6-13.3 6-10.4 1.2.1 2.7 2 3.7.7zm18 12c2.3 9 13.5 17 15 4-.2-1.4 1-4.7-1-5.2h-13.1a1 1 0 00-1 1.3zm-10.2-23l9.8 2.5c12.2 2.2 23.3-13.9 33.4-17.5L185.3 78c-10 2-16.3 6.5-27 16.6zm-25.3 11A90.3 90.3 0 00155 94.9c-7.4-8.6-14.8-24.8-7.4-33a30.8 30.8 0 00-15 43.7l.5-.1zm15.6-24.7a49.8 49.8 0 007.8 12.8c7.4-7 17.5-16.3 28.6-17.7-8.4-18.8-48.4-25.3-36.4 5zM225.4 282a66.4 66.4 0 0019.3-7.5c-2-4.3 14.5-23.7 20.6-17.9a98.3 98.3 0 0011.5-12L268 229c-5.8 23.3-20 40.3-42.5 53zm11.2-99.8a393.2 393.2 0 0129.8 44.3c-6.4 33-44.6 72-81.2 52.2 5-39.4-10.3-88.7-47-97l5.4-7.5c21.6 1.2 39.3 26 45.5 30.3l27.9-22.6a1 1 0 00.3-1.1 92.6 92.6 0 00-28-33.7c2.4-.7 4.6-1.4 7.1-2a149 149 0 0140.2 37.1zm-30.2 48.7c1 1.6 5.2-3.4 6-3.7l6.4-5.1 8.8-7c.7-1 4.1-2.5 3-3.9-.8-1-2 .4-2.6.9l-9.8 7.9-5.3 4.3c-.4.8-8 5.3-6.5 6.6zm-51 97.8c33.6 22.7 79.8 15.6 112.8-6.3a83.2 83.2 0 01-23.3-44c-39.5 21.7-79.6 16-89.2-26.7-10.5-1.9-29.4 5.6-35 19.4 1.8 23.8 17.6 45.4 34.7 57.6zM317.6 291c-9.3 8.4-19 16.1-26.9 21.9-.2-1.2-2.2-3.9-3-1.5.8 1.7 2 3.4 1 5.4-4 8.6-14.3 10.6-19.9 3v.3c-11.3-12.1-25.2-33.5-21-50.6 1-1.4 11.9-15.1 16.1-11.6a44.5 44.5 0 0013.6 35.4c1 .8 2.3-.7 1.3-1.6-8.3-6.1-15-25.7-13-33.1a87.5 87.5 0 006.7-6.3c12.5-11.8 20.3-31.3 34.6-40.4.3 15 .4 17.7 1.8 19.8 8.3-1.1 14.8-9.8 22.9-22.5 3.9-6.6 10.8-19.4 10.7-2.1a42 42 0 01-10.3 24.2 1 1 0 000 1.4c4.5-.1 7.6-9.6 9.5-13.4 4.3 5.5.7 15.9-3.6 22.8-.5 1.2-2.7 2.4-1.5 3.6 4-.3 6.5-9.4 8-13 2.7 4.7.1 14-3.7 21.3-.5 2-3.8 3.9-2.7 5.7 3.4 0 5.3-7.2 7-10.2.6 16.5-14.5 28.3-27.6 41.5zm11.1-45.2c-1.6-3-3.2-10.9-6.5-11.4a1 1 0 00-.4 1.4 62.5 62.5 0 018.6 30c5 5.2-.6-18.3-1.7-20zM166 225c-2.8-2.2-3.3 8-4 12.8l1.9.8c.2-6.6 2.2-10.5 2.1-13.5zm-43.3 33.7c13.5-9 32.2-12.9 44.8-5.4 5.8-16.2-16.6-16.9-27.8-14.4-16.3 3-35.7 18.8-26.4 35.8-1.1-6.6 4.2-12.4 9.4-16zM278.3 79c-1.4 1.3-9.6-6.6-12.8-4.6-1.1 2.4-3.1 4.2-3.6 6.8 9-1.4 21.3 10 23 19 4.5-16.1 14.8-33 20.3-48.2-2.3-1.1-4.5 1.7-6 3.2-2 2.8-5 5.5-6.8 2 1.2-5.8 5-11.3 7.7-16.1a.7.7 0 00-.3-.5c-6.2 2-8.3 6.3-12.2 13.1a1 1 0 01-1.4.5c-1.5-3.4 6.4-11.5 8.7-13.4a17.6 17.6 0 011.2-2.6c-5-1-9.9 9.4-13.2 13.2-3.5-1.9 7.5-13.7 9.2-14-5.8-.4-11.3 9-14.6 13.5-3-2 3.8-8.8 5.5-10.8-4.6 1.8-7.2 7.4-9.3 12 2.2-.8 16.3 6.2 12 8.8-2.9-2.9-8.1-7.2-12.8-6.9-2.4 6-4.4 12.1-6.5 18.2 5 .3 13.3 5.1 11.9 6.8z"/><path fill="#10162d" d="M490 442.2l7.6-3.3c.2.4-7.8 3.5-8 3.7L461.2 471l-80.6 36.3a111 111 0 01-33.6-4.6l146.5-64zm-262.1 22a5.4 5.4 0 01-3.6 5c-3.3 1-56.5 22-58.3 20.4-2.5 3.3-74.2-38-78.2-39.3a5.4 5.4 0 01-3-5.3c-2.3-6.4 49-17.8 51.8-20.1 8.2-6.4 79.3 32.1 88 34.2a5.4 5.4 0 013.3 5.1zm-2 0c3.3-3.4-83.8-40-83.8-38.2-1.4-1.1-50.3 15.7-52.8 16.2a3.5 3.5 0 00-.6 6.4l69.7 37.1a16.3 16.3 0 0013.3 1c.9-1.4 57.4-19 54.2-22.5zM589.2 21.5l-6.9-5.8c6.5 1.7-14 108.6-13.6 114.3l-41.1 274.6 17.3-17.3 50.3-348.5a19.2 19.2 0 00-6-17.3zm-47.4 373.2l2.3-2.4-2.3 2.4zM516.3 420l7.7-7.7-7.7 7.7zM559.6 177L525.2 407 513 419.2c-12-3.4-224.6-61.1-243.8-66.3l-.3.1c-2.3-.3-44.2-13.6-45.2-10.4l42.8 11.8a163 163 0 01-17.7 8.8l105.4 31.6-4 .8-49.3-14.7-30.7 10 49 16 20-7c-12.2 8.7 15.8 10 21.6 10 12.6 1 23.8 2.5 34.4-4.1.1.2-.2.5-.8 1-.2 1.2 78.9 20.8 70.3 23.1l-52-15.5-32.5 12.5 49.1 16.1a1 1 0 01.6 1.3c.2 2.3-23.2-7.1-23.8-6.8l-32.5 13c.4.7 22.4 6.9 20.8 8.6a1 1 0 01-1.3.6l-50.8-18.2-34.4 13.2 48 18.9a1 1 0 01.5 1.3c.5 2.5-22.8-8.4-23.3-8.1l-28.8 11.6-1.6-1.5 27.7-11.2-52.5-20.6-33.4 12.3 12 5.2-1.4 1.5c-2.4-1.2-245.4-104.6-164.6-73l28.7-8.4-13.7-5.4c-6.2-7 40.7 14.8 39.8 13.5l30.3-9-20.4-7.3 31-9 25.8 8.4a163.4 163.4 0 01-51.8.2l47.5 17c.3-.2 28.7-9 29-9l-20-6.7a1 1 0 00.5-1.9l-3.4-1.1 29.4-8.8 2.7.8a164 164 0 01-29.8 8.8l50.9 16.6 30.5-10-48.6-14.5c1.8.2 1.6-2-.1-2l-48-14.5a1 1 0 10-.6 2l39.5 11.8-29.2 8.7-41.4-13.6a1 1 0 00-1.2.7c-1.5 1.7 14.6 5.4 15 6l-27.6 8c-.7.2-18.3-7.8-18-5.4a1 1 0 00.6 1.2l14.4 5.2A232.8 232.8 0 01109 357l-99 26.5-.7-1.9 160.8-43c-24.5-9.5-41.5-30-49.6-56.3-13.9-4.3-15.2-21.3-5-32.2 0-30 10.7-60.3 31-82.6-.6-10.6-1.7-23.9-3.1-32.7-5.4 3.4-18.5.6-18.6-2.9.2-.6.4-.7 1-.9 4-1.1 5.6-2 6.3-2.6-6.5 2.3-14.3-.6-15.6-9a1 1 0 011.3-1.1c5 2.5 15.8-2.5 15.4-10.8-6.8-.7-7.7-20.2-5.6-25.9 7.4-28.5 46.9-32 59.8-5.5 4 1 18.8.8 21.9 2.9 3.5 7.4-8.2 18.6-16.3 18.5l.6 3.2c7.3-.7 7 6.3 1.2 9.2 1.6 12-3 30.1-11.6 33.3l1.6 6.6c-9.9.4-26.5-9.3-27.8-17.8 22.3 20.6 37.4 8 35.8-20.9-1.2 1-6.5 3.8-4.5.2 2.5-1 14.8-8.2 5.7-8.6-3.3.3-5.8 1.2-9.4 2.8-5.1-1.3 5.1-4.2 7-4.5a109.2 109.2 0 00-2.5-11c-13.1 10.4-16.4 11.1-32.6 6.2a17.5 17.5 0 00-7.1 7.5c1.4.3 1.6 2.5-.1 2.2-2.8-1.4-6.4-2.4-9.1-.9-6.3 3.4-.2 12.5 5.7 12a1 1 0 011 1.4c-.5 1-2 .4-3 .4.3 14.4 4.4 33 4.7 49.2 20 8.7 44.3-.1 35.3-22a102 102 0 0021.8-6.7c1-4.7 7.4-7.7 12.1-6a113.2 113.2 0 009.9-6.5l9.5-62.4c2.3-18.4 24.2-17.6 38-19.6 2.8-4.6 6.2-7.4 10.5-7 2.6-2 6.4-3.7 8.6-1.5 1.9-.6 4.7.5 3.5 2.7 2.7-1 5 0 4.4 2.2L562 7c5-.5 9.8.3 13.6 3.4a19.2 19.2 0 016.5 16.7l-22.5 149.9zM148.3 392l50.7 20 31.9-10.4-52.1-18.7zm144.6 8.4l-30.5 10.3 52.2 18.7 31.5-11.6zm-59 2.3L202 413l22 8.6a1 1 0 011.1.5l24.2 9.5 33.1-11.7zM93.5 392.3l46.5 20 30.4-9.5-48-18.9zm49.3 21.2l46.3 20 31.9-10.8-47.7-18.7zM275.1 444l-51.3-20.2-32 10.9 50 21.5zm64.3-3.6L285.3 421 252 432.8l26 10.2a1 1 0 011 .4l26 10.2zm37.5-12.5l-27.8-9-31.5 11.6 53.2 19 32.3-13zm-54.5-20l54.7 18 32.5-12.5-17.7-5.3c-8.6 4.5-37 8.4-49.2 3.8-7.2.7-15.4-1-7.6-8.4zM240 383.2l-29.3 9.1 48.7 17.4 30.4-10.2zm-16.2-42.6a124.2 124.2 0 0044.4-18.2 81.5 81.5 0 01-23.4-45.6c-25.3 14.9-72.9 14.3-79.6-22.7-14.2-7-38.7.3-45 18.8a84.5 84.5 0 00103.6 67.7zm-110.5-66c0-21.7 40-30.8 54.2-21.3 5.8-16.2-16.6-16.9-27.8-14.4-16.3 3-35.7 18.8-26.4 35.8zm51.9-50c-2.5 2-2.3 7-3.3 13.2l2 .8c-.4-5.7 3.8-13.5 1.3-14zm105.6 97.3v.1c5.8 5.7 14.5 2.2 18-5 1-2-.3-3.7-1-5.4.7-2.4 2.7.3 2.9 1.5 17.1-14 55-39.8 54.4-63.4-1.6 3-3.5 10.3-7 10.2-1-1.8 2.3-3.7 2.8-5.7 3.8-7.2 6.4-16.6 3.7-21.4-1.5 3.7-4 12.8-8 13.1-1.2-1.2 1-2.4 1.5-3.6 4.3-7 8-17.3 3.6-22.8-.1 2-9.5 18.9-9.5 12 7.2-6.8 13.9-26 8.3-33.1-3.7 1-6.3 7.4-8.7 11-7.4 12.4-14.5 20-21.3 22.4-3.7 1.2-2.8-5-3.4-19.7-14.3 9.1-22 28.6-34.6 40.4a87.3 87.3 0 01-6.6 6.3c-2 7.5 4.6 27 12.9 33.1 1 .8-.3 2.4-1.3 1.6a44.4 44.4 0 01-13.6-35.3c-4.2-3.6-15 10.1-16 11.5-4.3 17 9.6 38.5 21 50.6v-.3l2 2zm38-115.8c1.2 11.1 21.4 4.1 25-4 4.7-7.2-3.3-12.3-10.2-10 0 1.8.2 3.6.4 5.3 5.6 0 3.8 6-.2 7.7-6.5 3.7-10.2-2.7-4.3-6.2l-.3-5.2c-5.8 2.7-10.4 7.7-10.4 12.4zm-100.7-67.4c13.5-2.3 23.6 17.6 26.7 27.5 1.2 4 .8 5.2-2.4 7.6 4 3.8 7.8-3 7.4-6.8.7-12.3-18.9-42.1-31.7-28.3zm12.2-4.5a42.1 42.1 0 0121.1 28.4A175.3 175.3 0 00281.9 97a32.2 32.2 0 00-16-13.7 116 116 0 01-45.6 51zm42-58.4c2-2.6 2.6-5.6 3.7-8.5l-12.1 1.3-6 39.4a115.3 115.3 0 0013.2-19.5 11.8 11.8 0 011.3-12.7zm37.5-35c-6.2 1.9-8.3 6.2-12.2 13a1 1 0 01-1.4.5c-1.5-3.4 6.4-11.5 8.7-13.4a17.6 17.6 0 011.2-2.6c-5-1-9.9 9.4-13.2 13.2-3.5-1.9 7.5-13.7 9.2-14-5.8-.4-11.3 9-14.6 13.5-3-2 3.8-8.8 5.5-10.8-4.6 1.8-7.2 7.4-9.3 12 2.2-.8 16.3 6.2 12 8.8-2.9-2.9-8.1-7.2-12.8-6.9-2.4 6-4.4 12.1-6.5 18.2 4.7.2 15.2 6 11.1 7.1-2.1-1.1-9.3-6.4-12-4.8-1.1 2.3-3.1 4-3.6 6.7 9-1.4 21.3 10 23 19 4.5-16.1 14.8-33 20.3-48.2-2.3-1.1-4.5 1.7-6 3.2-2 2.8-5 5.5-6.8 2 1.3-6 5.1-11.5 8-16.5a2 2 0 00-.6 0zm-165.6 64.5A97.1 97.1 0 00155 94.9c-7.4-8.6-14.8-24.8-7.4-33a30.8 30.8 0 00-15 43.7l1.6-.4zM155.6 60c-16.3 3.2-7.2 24.3.9 33.6 7.4-7 17.5-16.3 28.6-17.7a30.7 30.7 0 00-29.5-16zm44 33.4c5.3-3.9 8.7-7.8 8.4-13-4-1.3-8.6 2.6-17.1 8.3q1 3.4 1.7 6.6c1.4.7 4.2 0 7-2zM196 79c-15.7-3.2-24 2.5-37.6 15.5l9.8 2.5c12.2 2.1 23.3-13.9 33.4-17.5zm342.7 77l.5-3.8 16.4-115.4-253 26.6c-4 8.8-8.8 19.7-13 28-1.4 4.2-1.4 12.7-8.2 12.6a177.2 177.2 0 01-39.7 61c.4 4.3-.7 8.8-4.1 11l-.5 3.4a382.6 382.6 0 0129.8 43.9 21.6 21.6 0 01-.5 3.1c-20.1-33-39-62.5-70-81.4l-7.2 2a92.6 92.6 0 0128 33.7 1 1 0 01-.3 1.1l-27.8 22.6c-6.2-4.2-24-29.1-45.5-30.3l-5.4 7.4c36.7 8.4 52 57.7 47 97.1 17.4 9.6 44.2 5 59.5-4.2-2-4.4 14.5-23.8 20.6-17.9 15.7-12.2 25.4-37 41.8-46.9-1.6-7.2 3.6-14.6 12-18.2.4-21.3-9.2-19.8-11-31.9l-.7-25.3c1-12-5-31.4 5-39.6 4.4-3.6 15.7-13.5 20-17 4.5-4.8 11.8-8.6 17-2.4 4 6.4 7.2 16.3 10.5 23.2 19.2-4.3 26.2-1 32.6 15.5l6.7 14c-4.7-6.8-13-6-20.4-5.2-11.6 1.4-19 10.6-24.3 20.3-2.2 3.8-3.6-2-6.4-.9-4.7-13.4-11-31 3.8-40.2l-9-21.3c-.6-1.4-4.6 3-5.4 3.2-4.3 3.4-16 12.8-20.6 16.3-4.2 3-3.7 8.7-3.7 13.3l-.4 43.8c0 1.9-.5 4.4 1 5.8a39.6 39.6 0 019.6 27c6.1-1.6 14.1 1 13.8 7.9 9.6-7.2 7.8 14.2 5.3 19.2 3.2 3.7 3.7 7.7 2.6 13.1 3.7 4 2.8 9.7 1 16.3 2.9 5.6.6 12.9-4.4 20.7 3 13.6-6.2 24.2-21.5 24.2a345.3 345.3 0 01-29.1 23.8c-1.7 9.7-13.8 15.5-21.3 8.4l-6.3 4 34.1 8.2L506 386.7zm-129.2 68.7c9.9-4.2 3.8-16.3-5.3-12-9.3 3.7-4.6 16.4 5.3 12zm28.4-20.8c12.3 26.9-24.4 52.6-48.9 41.6a24 24 0 01-15.5-21.9c.2-5.7.4-13.6 7.2-15a6.7 6.7 0 014.7 1.4c7 2.1 6.7-9.9 11.8-13 9-8 31.6-5 40.7 7zM388.6 226c8.2 20.2 45.2 4 36-15.7-8.8-18-43.3-3-36 15.7zm-220-108.4a1 1 0 01.9-1.3h13.1c2 .4.8 3.8 1 5.1-1.5 13-12.7 5-15-3.8zm2.3.7c3.8 9.2 11.4 11.7 10.8 0zm59.3 92.5c-1.6-.2-9.2 7.3-10.7 8.1l-13 10.5a1 1 0 001.3 1.5l8.6-7 11.2-9c.8-1 4.9-2.8 2.6-4zm96.7 35.8a62.9 62.9 0 013.5 19.2 1 1 0 002 0 64.5 64.5 0 00-8.8-31c-5.1-2.8 3.4 10 3.3 11.8zm80 159c-1 6.3 13 4.3 13.6 0-1.4 1.5-12.2 2.8-12-.7a2.6 2.6 0 00-1.5.6z"/><path fill="#e3e6ee" d="M538.1 61L519 202.5c-.4 3.8-5.7 5.5-8.1 2.6L491 180l-1.5 1.3-50.3 40.4a24.7 24.7 0 00-1.4-17.9l-38.6-80.5-1.3-2.7-2.2-4.6 26-20.9 1.5-1.2-16.8-21.4c-2.7-2.7-.7-7.7 3-8L533 55.8a4.8 4.8 0 015.1 5.3zM365.8 267.4c2.9-12.3 2-21.9 3-32.3.7-10.3 1.1-17-2.9-19.2-2.7-1.4-5.5-5.7-8-11.6l-15.2 12.2-.2.6c3.2 3.7 3.7 7.7 2.7 13 3.6 4.2 2.7 9.7 1 16.4 2.8 5.6.5 12.9-4.5 20.7 3 13.6-6.1 24.2-21.4 24.2a345.3 345.3 0 01-29.2 23.8c-1.7 9.7-13.8 15.5-21.3 8.4l-6.3 4 34.1 8.2 65.9-53c0-3.6 1.2-9.6 2.3-15.4zM402 248c-10 .1-20.6-4.6-25.4-13.2 1.6 13.2 3.7 19.8 3.4 34.8l15.4-12.4c-.2-2.6-.6-4.4-2.3-3.5l12-5.8-3 .1zm-130.7 74.2l-.4-.4.4.4zm134.1-73l2-1.6-1.3.2a7 7 0 00-.7 1.4zm53.8-7c-.2 1.4-51.3 39.1-49.4 41 1.6 2.4 49.2-39.5 50.6-39.4 1-.7-.2-2.4-1.2-1.5zm20.2-16.2l-8.2 6.6a1 1 0 001.2 1.6c.3-.6 13.2-9.1 7-8.2zM350.6 164l1 3.2c1.3-7.4 6.7-18.7 14.3-18.2 14.5-5.7 23 8.1 33.1 2.6 3.7-4.6 4.7-3.8 11-1.3-1.6-2.5-10.7-24.7-13.6-25.5-15.9-8.7-35 2.6-41.9 18.1-2.1 3.8-3.6-2-6.4-.9-3.3.8.2 14.8 2.5 22zm24.8 48.6c5-8.1 7.8-1.9 12.6-2.4 4.6-2.7 4.7-9.8 9.2-13.2 7.7-6.8 26-6.2 36.6 2.8-5.8-12.1-16-33.5-22-45.6-2.1.4-5.2-1.4-6.4 0-7.6 8-15 7.4-19.8 5.9-7.3-2.3-10-10.3-18.4-9.6-16.2 3.2-15.4 25.8-11.9 38.5 8.7-8.3 14.8 8.7 20.3-2.3a1 1 0 011.4-.5c1.6 2.4-3.1 6.1-5.2 6.4-6.1.2-9.8-8-16-1.4 2 7.4 5.9 19.8 11 22.8 2.5 1.4 3.6 3.5 4.1 6.7 1.3 19-2.6 42.6-5.4 62.7.5 18.7.2 47.1 4.7 55 5-8.3 6.3-50.8 7.6-67.2 1-18.4-3.3-28.6-4.1-45a27.5 27.5 0 011.7-13.6zm-134-50.2A175.3 175.3 0 00281.9 97a28.7 28.7 0 00-6-7.3 222.8 222.8 0 01-36.9 65.2 37.4 37.4 0 012.4 7.7zm-65.1-37c4.6 3.4 5.5-3.6 5.4-7.2h-10.8a16 16 0 005.4 7.2zm100 118.2l.5.9 1.4-1.7-9.6-16.8c1.4-5.5.5-22.2-10.4-21.7a1 1 0 000 2c9.6.3 9.5 13.5 8.2 20-5.5 25.7-22.4 44.3-47.7 56.8 26.2-6.9 43-30.7 49.2-54.3l8.5 14.8zm-6.2-48.6a1 1 0 00-.3 2c17.3 2.2 19.3 20.5 15.7 36 10-18.4-1.3-36.8-15.4-38zm-15.1 1.2a1 1 0 00.5 2c.8-.8 5.5-.1 5.8-2.2-1-2-4.5.1-6.3.2zm-34 88.5c-23.5 5-50.7-4.3-55.8-30.8-2.8-1.4-5.2-2-9.5-2.4 9.6 42.8 49.8 48.4 89.2 26.7l-.1-1.6a75.5 75.5 0 01-23.8 8.1zm169.7 117.5a45.9 45.9 0 00-36.6-7.5c-6.6 1.7-15.8 3-18.1 9 3 8 43.1 7.7 50.8 5.5 3.6-1 14.3-3.1 3.9-7zm28-.1c-4.4-2.9-9.6-.1-10.2 3.4 1.9 2.6 17.3 2.1 10.3-3.4zM153 492c-18.3.1-18.3 27.9 0 28 18.4-.2 18.2-28 0-28z"/></svg>